<svg width="122" height="139" viewBox="0 0 122 139" fill="none" xmlns="http://www.w3.org/2000/svg">
<g filter="url(#filter0_d_62_894)">
<path d="M12.1429 13.3818C12.1429 14.1495 14.0285 36.6684 16.3606 63.4352C18.6431 90.1509 20.6278 112.823 20.6775 113.796L20.8263 115.536L40.9221 121.268L60.9683 127L64.9875 125.874C67.1707 125.26 76.1518 122.701 84.9841 120.193C98.679 116.304 101.011 115.485 101.21 114.615C101.458 113.386 109.893 14.7637 109.893 13.1259V12H12.1429V13.3818ZM91.8812 35.1331C91.6827 36.3614 90.3926 50.8963 89.0032 67.5296C87.5643 84.1117 86.3734 97.8278 86.2742 97.9301C86.0757 98.186 61.7126 105.146 61.018 105.146C60.5218 105.146 47.2238 101.41 38.1435 98.749L35.6129 97.9813L35.0174 91.2256C34.7197 87.4895 34.3228 82.9858 34.1243 81.1945L33.8266 78.0214H40.029C47.0253 78.0214 46.8268 77.919 46.8765 82.3716C46.8765 83.4976 47.0253 85.2377 47.1742 86.2612L47.4719 88.1037L54.2697 89.9462L61.018 91.7886L67.7166 89.9462C71.3884 88.9226 74.4648 88.0525 74.4648 88.0525C74.5144 88.0013 74.8121 84.9818 75.1098 81.348C75.4076 77.6631 75.7549 74.0806 75.9037 73.2617L76.1518 71.8798H33.5785L33.3304 70.7027C33.1815 70.0886 32.8838 67.1202 32.6853 64.0494L32.338 58.5732H77.045L77.3427 55.093C77.5412 53.1994 77.8389 50.2822 77.9878 48.6444C78.1862 46.5461 78.1366 45.7272 77.7397 45.9831C77.4419 46.1366 66.873 46.1366 54.1705 45.9319L31.0975 45.6248L30.7998 41.9911C30.6013 39.9951 30.3532 37.1291 30.2044 35.6449L29.9067 32.9835H92.1293L91.8812 35.1331Z" fill="#6EB5A8"/>
</g>
<defs>
<filter id="filter0_d_62_894" x="0.142944" y="0" width="121.75" height="139" filterUnits="userSpaceOnUse" color-interpolation-filters="sRGB">
<feFlood flood-opacity="0" result="BackgroundImageFix"/>
<feColorMatrix in="SourceAlpha" type="matrix" values="0 0 0 0 0 0 0 0 0 0 0 0 0 0 0 0 0 0 127 0" result="hardAlpha"/>
<feOffset/>
<feGaussianBlur stdDeviation="6"/>
<feComposite in2="hardAlpha" operator="out"/>
<feColorMatrix type="matrix" values="0 0 0 0 0.701961 0 0 0 0 0.878431 0 0 0 0 0.780392 0 0 0 0.65 0"/>
<feBlend mode="normal" in2="BackgroundImageFix" result="effect1_dropShadow_62_894"/>
<feBlend mode="normal" in="SourceGraphic" in2="effect1_dropShadow_62_894" result="shape"/>
</filter>
</defs>
</svg>
