<svg width="114" height="139" viewBox="0 0 114 139" fill="none" xmlns="http://www.w3.org/2000/svg">
<g filter="url(#filter0_d_62_912)">
<path d="M91.0514 51.502C97.5996 47.6687 101.948 41.0305 101.948 33.5041C101.948 21.6301 91.1038 12 77.8501 12H36.4652C23.1592 12 12.3677 21.6768 12.3677 33.5041C12.3677 41.0305 16.7157 47.6687 23.264 51.502C16.7157 55.3354 12.3677 61.9736 12.3677 69.5C12.3677 77.0264 16.7157 83.6646 23.264 87.498C16.7157 91.3313 12.3677 97.9695 12.3677 105.496C12.3677 117.37 23.264 127 36.6224 127C50.1379 127 61.139 117.23 61.139 105.262V85.3943C65.4346 88.8537 71.1447 91.0041 77.3786 91.0041H77.9025C91.2085 91.0041 102 81.3272 102 69.5C101.948 61.9736 97.5996 55.3354 91.0514 51.502ZM53.2287 105.262C53.2287 113.35 45.7899 119.988 36.6224 119.988C27.612 119.988 20.278 113.49 20.278 105.496C20.278 97.502 27.5596 91.0508 36.4652 91.0041H53.2287V105.262ZM53.2287 83.9919H36.4652C27.5072 83.9919 20.278 77.4939 20.278 69.5C20.278 61.5061 27.5596 55.0081 36.5176 55.0081H53.2811V83.9919H53.2287ZM53.2287 47.9959H36.4652C27.5072 47.9959 20.2256 41.498 20.2256 33.5041C20.2256 25.5102 27.5072 19.0122 36.4652 19.0122H53.2287V47.9959ZM61.0866 19.0122H77.8501C86.8081 19.0122 94.0898 25.5102 94.0898 33.5041C94.0898 41.498 86.8081 47.9959 77.8501 47.9959H61.0866V19.0122ZM77.8501 83.9919H77.3263C68.3683 83.9919 61.0866 77.4939 61.0866 69.5C61.0866 61.5061 68.3683 55.0081 77.3263 55.0081H77.8501C86.8081 55.0081 94.0898 61.5061 94.0898 69.5C94.0898 77.4939 86.8081 83.9919 77.8501 83.9919Z" fill="#6EB5A8"/>
</g>
<defs>
<filter id="filter0_d_62_912" x="0.367676" y="0" width="113.632" height="139" filterUnits="userSpaceOnUse" color-interpolation-filters="sRGB">
<feFlood flood-opacity="0" result="BackgroundImageFix"/>
<feColorMatrix in="SourceAlpha" type="matrix" values="0 0 0 0 0 0 0 0 0 0 0 0 0 0 0 0 0 0 127 0" result="hardAlpha"/>
<feOffset/>
<feGaussianBlur stdDeviation="6"/>
<feComposite in2="hardAlpha" operator="out"/>
<feColorMatrix type="matrix" values="0 0 0 0 0.701961 0 0 0 0 0.878431 0 0 0 0 0.780392 0 0 0 0.65 0"/>
<feBlend mode="normal" in2="BackgroundImageFix" result="effect1_dropShadow_62_912"/>
<feBlend mode="normal" in="SourceGraphic" in2="effect1_dropShadow_62_912" result="shape"/>
</filter>
</defs>
</svg>
