<svg width="365" height="365" viewBox="0 0 365 365" fill="none" xmlns="http://www.w3.org/2000/svg">
<path d="M358.075 166.229L198.71 6.876C194.451 2.6287 188.573 0 182.074 0C175.575 0 169.697 2.6287 165.438 6.876L132.421 39.9538L174.395 81.9278C177.072 80.9908 180.151 80.4553 183.364 80.4553C198.808 80.4553 211.318 92.966 211.318 108.41C211.318 111.683 210.759 114.811 209.724 117.732L209.785 117.537L250.213 157.99C252.915 157.028 256.043 156.469 259.292 156.469C274.724 156.469 287.234 168.979 287.234 184.411C287.234 199.842 274.724 212.353 259.292 212.353C243.861 212.353 231.35 199.842 231.35 184.411C231.35 180.601 232.117 176.975 233.492 173.665L233.419 173.847L195.57 136.193V235.427C204.868 240.112 211.136 249.581 211.136 260.509C211.136 275.965 198.601 288.5 183.145 288.5C167.689 288.5 155.154 275.965 155.154 260.509C155.154 252.793 158.27 245.82 163.32 240.757C165.888 238.19 168.943 236.108 172.338 234.648L172.521 234.575V134.368C162.274 130.06 155.215 120.093 155.215 108.495C155.215 104.6 156.006 100.901 157.442 97.5297L157.369 97.7122L116.125 56.2737L6.83949 165.486C2.60436 169.758 0 175.636 0 182.135C0 188.634 2.61653 194.512 6.85166 198.783L166.229 358.112C170.476 362.371 176.354 365 182.853 365C189.352 365 195.218 362.371 199.477 358.112L358.1 199.489C362.359 195.242 365 189.352 365 182.865C365 176.379 362.359 170.488 358.1 166.241L358.075 166.229Z" fill="#6EB5A8"/>
</svg>
