<svg width="339" height="339" viewBox="0 0 339 339" fill="none" xmlns="http://www.w3.org/2000/svg">
<g clip-path="url(#clip0_227_322)">
<path fill-rule="evenodd" clip-rule="evenodd" d="M169.5 0C263.115 0 339 77.7993 339 173.787C339 250.554 290.489 315.676 223.181 338.677C214.587 340.389 211.536 334.962 211.536 330.335C211.536 324.606 211.739 305.893 211.739 282.638C211.739 266.434 206.315 255.858 200.23 250.468C237.978 246.162 277.641 231.465 277.641 164.716C277.641 145.732 271.064 130.241 260.182 118.071C261.945 113.681 267.759 96.004 258.521 72.0706C258.521 72.0706 244.317 67.4139 211.96 89.8896C198.417 86.042 183.908 84.106 169.5 84.0382C155.093 84.106 140.6 86.042 127.074 89.8896C94.6827 67.4139 80.4447 72.0706 80.4447 72.0706C71.2409 96.004 77.0547 113.681 78.8006 118.071C67.9695 130.241 61.3421 145.732 61.3421 164.716C61.3421 231.296 100.92 246.218 138.566 250.608C133.719 254.948 129.329 262.602 127.803 273.84C118.142 278.281 93.5979 285.967 78.4785 259.406C78.4785 259.406 69.512 242.708 52.4942 241.488C52.4942 241.488 35.9679 241.268 51.3415 252.048C51.3415 252.048 62.4438 257.388 70.1561 277.473C70.1561 277.473 80.1058 308.491 127.261 297.982C127.345 312.508 127.498 326.199 127.498 330.335C127.498 334.928 124.379 340.304 115.921 338.694C48.5617 315.727 0 250.571 0 173.787C0 77.7993 75.9021 0 169.5 0Z" fill="#B3E0C7"/>
</g>
<defs>
<clipPath id="clip0_227_322">
<rect width="339" height="339" fill="white"/>
</clipPath>
</defs>
</svg>
