<svg width="297" height="297" viewBox="0 0 297 297" fill="none" xmlns="http://www.w3.org/2000/svg">
<g clip-path="url(#clip0_2018_834)">
<g filter="url(#filter0_d_2018_834)">
<path d="M265.737 70.3418C251.169 70.3418 238.929 80.3049 235.458 93.7887H199.626C184.343 93.7887 171.3 104.84 168.788 119.912L167.503 127.622C166.895 131.272 165.012 134.588 162.188 136.98C159.365 139.372 155.784 140.684 152.084 140.684H139.701C136.23 127.2 123.99 117.237 109.422 117.237C94.8544 117.237 82.6143 127.2 79.1443 140.684H61.5409C58.0697 127.2 45.8296 117.237 31.2617 117.237C13.9974 117.237 0 131.233 0 148.5C0 165.767 13.9961 179.763 31.263 179.763C45.8308 179.763 58.0709 169.8 61.5421 156.316H79.1431C82.613 169.8 94.8544 179.763 109.421 179.763C123.989 179.763 136.229 169.8 139.7 156.316H152.085C155.785 156.316 159.365 157.628 162.189 160.02C165.012 162.412 166.895 165.728 167.503 169.378L168.788 177.087C171.3 192.16 184.343 203.211 199.626 203.211H204.195C207.665 216.694 219.906 226.658 234.474 226.658C251.74 226.658 265.737 212.662 265.737 195.395C265.737 178.128 251.741 164.132 234.474 164.132C219.906 164.132 207.665 174.094 204.195 187.579H199.626C195.926 187.579 192.345 186.267 189.522 183.875C186.698 181.483 184.815 178.167 184.207 174.517L182.924 166.807C181.748 159.716 178.159 153.249 172.764 148.5C178.159 143.751 181.748 137.283 182.924 130.192L184.208 122.483C184.816 118.833 186.699 115.517 189.522 113.125C192.346 110.733 195.926 109.421 199.626 109.421H235.458C238.929 122.905 251.169 132.868 265.737 132.868C283.003 132.868 297 118.872 297 101.605C297 84.3379 283.004 70.3418 265.737 70.3418ZM265.737 85.9739C267.79 85.9737 269.822 86.3779 271.719 87.1634C273.615 87.9489 275.339 89.1002 276.79 90.5517C278.242 92.0032 279.393 93.7264 280.178 95.6229C280.964 97.5194 281.368 99.552 281.368 101.605C281.368 103.658 280.964 105.69 280.179 107.587C279.393 109.484 278.242 111.207 276.791 112.659C275.339 114.11 273.616 115.262 271.719 116.047C269.823 116.833 267.79 117.237 265.737 117.237C263.684 117.237 261.651 116.833 259.755 116.048C257.858 115.262 256.134 114.111 254.683 112.659C253.231 111.207 252.08 109.484 251.294 107.587C250.509 105.691 250.105 103.658 250.105 101.605C250.105 99.5519 250.509 97.5192 251.295 95.6226C252.08 93.726 253.232 92.0028 254.683 90.5513C256.135 89.0998 257.858 87.9484 259.755 87.163C261.651 86.3776 263.684 85.9736 265.737 85.9739ZM31.263 132.868C33.3159 132.867 35.3488 133.272 37.2455 134.057C39.1422 134.842 40.8656 135.994 42.3173 137.446C43.7689 138.897 44.9203 140.621 45.7058 142.517C46.4913 144.414 46.8954 146.447 46.8951 148.5C46.8954 150.553 46.4913 152.586 45.7058 154.482C44.9203 156.379 43.7689 158.102 42.3173 159.554C40.8656 161.006 39.1422 162.157 37.2455 162.943C35.3488 163.728 33.3159 164.132 31.263 164.132C29.2101 164.132 27.1774 163.728 25.2808 162.942C23.3842 162.157 21.661 161.005 20.2095 159.554C18.758 158.102 17.6066 156.379 16.8212 154.482C16.0358 152.585 15.6318 150.553 15.6321 148.5C15.6318 146.447 16.0358 144.414 16.8212 142.518C17.6066 140.621 18.758 138.898 20.2095 137.446C21.661 135.994 23.3842 134.843 25.2808 134.057C27.1774 133.272 29.2101 132.868 31.263 132.868ZM109.421 132.868C111.474 132.867 113.507 133.272 115.404 134.057C117.3 134.842 119.024 135.994 120.475 137.446C121.927 138.897 123.078 140.621 123.864 142.517C124.649 144.414 125.053 146.447 125.053 148.5C125.053 150.553 124.649 152.586 123.864 154.482C123.078 156.379 121.927 158.102 120.475 159.554C119.024 161.006 117.3 162.157 115.404 162.943C113.507 163.728 111.474 164.132 109.421 164.132C107.368 164.132 105.335 163.728 103.439 162.942C101.542 162.157 99.819 161.005 98.3675 159.554C96.916 158.102 95.7647 156.379 94.9793 154.482C94.1939 152.585 93.7898 150.553 93.7901 148.5C93.7898 146.447 94.1939 144.414 94.9794 142.517C95.7649 140.621 96.9163 138.897 98.3679 137.446C99.8196 135.994 101.543 134.842 103.44 134.057C105.336 133.272 107.368 132.867 109.421 132.868ZM234.475 179.763C236.528 179.763 238.561 180.167 240.457 180.952C242.354 181.738 244.077 182.889 245.529 184.341C246.98 185.793 248.132 187.516 248.917 189.413C249.702 191.309 250.106 193.342 250.106 195.395C250.106 197.448 249.702 199.48 248.917 201.377C248.131 203.273 246.98 204.996 245.528 206.448C244.077 207.899 242.354 209.051 240.457 209.836C238.561 210.622 236.528 211.026 234.475 211.026C232.422 211.026 230.39 210.622 228.493 209.837C226.596 209.051 224.873 207.9 223.421 206.448C221.97 204.997 220.818 203.274 220.033 201.377C219.247 199.48 218.843 197.448 218.843 195.395C218.843 193.342 219.247 191.309 220.032 189.412C220.818 187.516 221.969 185.792 223.421 184.341C224.873 182.889 226.596 181.738 228.493 180.952C230.39 180.167 232.422 179.762 234.475 179.763Z" fill="#6EB5A8"/>
</g>
</g>
<defs>
<filter id="filter0_d_2018_834" x="-12" y="58.3418" width="321" height="180.316" filterUnits="userSpaceOnUse" color-interpolation-filters="sRGB">
<feFlood flood-opacity="0" result="BackgroundImageFix"/>
<feColorMatrix in="SourceAlpha" type="matrix" values="0 0 0 0 0 0 0 0 0 0 0 0 0 0 0 0 0 0 127 0" result="hardAlpha"/>
<feOffset/>
<feGaussianBlur stdDeviation="6"/>
<feComposite in2="hardAlpha" operator="out"/>
<feColorMatrix type="matrix" values="0 0 0 0 0.701961 0 0 0 0 0.878431 0 0 0 0 0.780392 0 0 0 0.65 0"/>
<feBlend mode="normal" in2="BackgroundImageFix" result="effect1_dropShadow_2018_834"/>
<feBlend mode="normal" in="SourceGraphic" in2="effect1_dropShadow_2018_834" result="shape"/>
</filter>
<clipPath id="clip0_2018_834">
<rect width="297" height="297" fill="white"/>
</clipPath>
</defs>
</svg>
