<svg width="141" height="139" viewBox="0 0 141 139" fill="none" xmlns="http://www.w3.org/2000/svg">
<g filter="url(#filter0_d_62_909)">
<path d="M98.6037 119.82C98.1728 120.046 98.209 120.118 98.6218 119.909C98.7557 119.855 98.868 119.78 98.9657 119.69C98.9657 119.615 98.9657 119.615 98.6037 119.82ZM99.4726 119.352C99.2662 119.521 99.2662 119.521 99.5125 119.41C99.6428 119.334 99.7587 119.262 99.7587 119.241C99.7587 119.144 99.7007 119.165 99.4726 119.352ZM100.037 119.015C99.8311 119.183 99.8311 119.183 100.077 119.072C100.211 118.997 100.323 118.917 100.323 118.9C100.323 118.81 100.266 118.828 100.037 119.015ZM100.61 118.68C100.403 118.849 100.403 118.849 100.642 118.734C100.776 118.662 100.888 118.587 100.888 118.565C100.888 118.475 100.83 118.493 100.61 118.68ZM101.381 118.174C100.986 118.436 100.848 118.605 101.211 118.418C101.453 118.271 101.866 117.947 101.793 117.947C101.638 118.005 101.507 118.102 101.377 118.174H101.381ZM66.7564 12.0264C66.4921 12.0444 65.6991 12.1163 65.004 12.1738C48.5372 13.6544 33.1313 22.4521 23.3664 36.0044C17.968 43.4328 14.4632 52.0616 13.1417 61.1216C12.6746 64.2842 12.6167 65.2186 12.6167 69.506C12.6167 73.7898 12.6746 74.7099 13.1417 77.8724C16.2953 99.4749 31.7772 117.609 52.7625 124.33C56.5389 125.527 60.4963 126.353 65.004 126.86C66.7564 127.047 74.3344 127.047 76.0868 126.86C83.8785 125.997 90.4572 124.089 96.9671 120.793C97.9664 120.29 98.1547 120.157 98.0207 120.046C94.8346 115.874 91.7063 111.697 88.5744 107.486L79.3164 95.0761L67.7195 78.0234C63.8526 72.3164 59.9713 66.6238 56.0284 60.9743C55.9885 60.9743 55.9379 68.5536 55.9161 77.797C55.8763 93.9871 55.8763 94.6448 55.6699 95.0186C55.4635 95.4678 55.1232 95.8415 54.6706 96.05C54.3122 96.2189 53.9899 96.2548 52.2774 96.2548H50.3186L49.8081 95.9386C49.4895 95.7337 49.2252 95.4498 49.055 95.1156L48.8088 94.6089L48.8269 72.072L48.8667 49.5351L49.2252 49.0859C49.4533 48.8092 49.7357 48.5828 50.0543 48.4139C50.5286 48.1875 50.7169 48.1515 52.6756 48.1515C54.9748 48.1515 55.3549 48.2414 55.9596 48.899C60.6519 55.8423 65.3298 62.8035 69.9317 69.7863C77.459 81.1141 87.7345 96.5711 92.7853 104.154L101.971 117.951L102.423 117.652C106.837 114.731 110.852 111.252 114.317 107.284C121.617 98.9897 126.352 88.7869 127.956 77.8976C128.423 74.735 128.481 73.797 128.481 69.5132C128.481 65.2258 128.423 64.3093 127.956 61.1468C124.803 39.5443 109.321 21.4099 88.3355 14.6858C84.4107 13.4532 80.3737 12.6122 76.2859 12.1809C75.1889 12.0695 67.7014 11.9366 66.76 12.0336L66.7564 12.0264ZM90.4608 46.8038C91.0075 47.0626 91.4203 47.5514 91.6086 48.112C91.7063 48.4139 91.7244 54.6635 91.7063 68.7405L91.6665 88.9522L88.0857 83.4896L84.4831 78.0234V63.3498C84.4831 53.8369 84.5229 48.5037 84.5736 48.2414C84.7438 47.6412 85.1565 47.1381 85.7069 46.8218C86.1558 46.5954 86.3296 46.5774 88.1219 46.5774C89.7982 46.5774 90.0843 46.5954 90.4608 46.8038Z" fill="#6EB5A8"/>
</g>
<defs>
<filter id="filter0_d_62_909" x="0.616699" y="0" width="139.865" height="139" filterUnits="userSpaceOnUse" color-interpolation-filters="sRGB">
<feFlood flood-opacity="0" result="BackgroundImageFix"/>
<feColorMatrix in="SourceAlpha" type="matrix" values="0 0 0 0 0 0 0 0 0 0 0 0 0 0 0 0 0 0 127 0" result="hardAlpha"/>
<feOffset/>
<feGaussianBlur stdDeviation="6"/>
<feComposite in2="hardAlpha" operator="out"/>
<feColorMatrix type="matrix" values="0 0 0 0 0.701961 0 0 0 0 0.878431 0 0 0 0 0.780392 0 0 0 0.65 0"/>
<feBlend mode="normal" in2="BackgroundImageFix" result="effect1_dropShadow_62_909"/>
<feBlend mode="normal" in="SourceGraphic" in2="effect1_dropShadow_62_909" result="shape"/>
</filter>
</defs>
</svg>
