<svg width="149" height="139" viewBox="0 0 149 139" fill="none" xmlns="http://www.w3.org/2000/svg">
<g filter="url(#filter0_d_62_897)">
<path d="M134.014 66.6838C135.376 69.4641 136.241 72.4361 136.594 75.4681C136.935 78.5 136.765 81.568 136.057 84.552C135.363 87.536 134.158 90.4002 132.481 93.0367C131.38 94.7984 130.084 96.4522 128.59 97.9741C127.11 99.4841 125.459 100.85 123.664 102.049C121.857 103.247 119.931 104.254 117.887 105.081C115.857 105.896 113.735 106.519 111.56 106.926C110.538 109.826 109.018 112.571 107.053 115.039C105.102 117.508 102.73 119.677 100.032 121.463C97.3331 123.261 94.3463 124.651 91.176 125.585C88.0058 126.532 84.6915 127 81.3509 127C79.137 127.012 76.91 126.796 74.7353 126.388C72.5738 125.969 70.4516 125.334 68.4211 124.507C66.3905 123.68 64.4648 122.649 62.6701 121.451C60.8885 120.253 59.2378 118.874 57.7706 117.352C54.4956 117.999 51.1419 118.155 47.8276 117.844C44.5132 117.52 41.2644 116.729 38.2121 115.483C35.1728 114.248 32.3563 112.571 29.8804 110.521C27.4044 108.472 25.2953 106.075 23.6316 103.439C22.5181 101.677 21.6011 99.8197 20.9067 97.8903C20.2124 95.9608 19.7539 93.9715 19.5181 91.9462C19.2823 89.9328 19.2954 87.8955 19.5312 85.8702C19.767 83.8569 20.2517 81.8676 20.946 79.9381C18.719 77.6731 16.885 75.0966 15.5226 72.3163C14.1733 69.524 13.2955 66.5639 12.9549 63.532C12.6012 60.5 12.7846 57.4321 13.4789 54.448C14.1733 51.464 15.3785 48.5998 17.0553 45.9633C18.1557 44.2017 19.4526 42.5359 20.9329 41.0259C22.4133 39.5159 24.077 38.1497 25.8717 36.9513C27.6664 35.7529 29.6053 34.7343 31.6358 33.9193C33.6794 33.0924 35.8016 32.4813 37.9763 32.0738C38.9981 29.1617 40.5177 26.4293 42.4696 23.9606C44.4346 21.4919 46.8058 19.3228 49.5044 17.5252C52.203 15.7395 55.1899 14.3494 58.3601 13.4026C61.5304 12.4679 64.8447 11.9885 68.1852 12.0005C70.3992 11.9885 72.6262 12.1922 74.8008 12.6117C76.9755 13.0311 79.0977 13.6543 81.1282 14.4812C83.1587 15.3201 85.0845 16.3387 86.8792 17.5371C88.6739 18.7475 90.3245 20.1137 91.7917 21.6357C95.0537 21.0005 98.4073 20.8447 101.722 21.1563C105.036 21.4679 108.272 22.2708 111.324 23.5052C114.363 24.7515 117.18 26.4173 119.656 28.4666C122.132 30.5039 124.241 32.8887 125.905 35.5372C127.018 37.2869 127.935 39.1444 128.629 41.0858C129.324 43.0152 129.795 45.0046 130.018 47.0299C130.254 49.0552 130.254 51.0925 130.005 53.1178C129.769 55.1431 129.284 57.1325 128.59 59.0619C130.83 61.3269 132.651 63.8915 134.014 66.6838ZM90.3638 117.844C93.2197 116.765 95.8135 115.171 98.0012 113.17C100.189 111.169 101.931 108.796 103.11 106.171C104.289 103.559 104.905 100.754 104.905 97.9262V71.2018C104.896 71.1778 104.888 71.1498 104.879 71.1179C104.87 71.0939 104.857 71.0699 104.84 71.046C104.822 71.022 104.8 71.002 104.774 70.986C104.748 70.9621 104.722 70.9461 104.695 70.9381L94.1236 65.3535V97.6386C94.1236 97.9622 94.0712 98.2977 93.9795 98.6093C93.8878 98.9329 93.7568 99.2325 93.5734 99.5201C93.39 99.8077 93.1804 100.071 92.9184 100.299C92.6637 100.531 92.3775 100.733 92.0668 100.898L67.0324 114.117C66.8228 114.237 66.4691 114.404 66.2857 114.5C67.3206 115.303 68.4473 116.01 69.6263 116.633C70.8184 117.256 72.0498 117.784 73.3336 118.215C74.6174 118.635 75.9406 118.958 77.2768 119.174C78.6261 119.39 79.9885 119.498 81.3509 119.498C84.4426 119.498 87.508 118.934 90.3638 117.844ZM30.745 99.6998C32.3039 102.157 34.3606 104.29 36.8103 106.015C39.2732 107.741 42.0635 108.999 45.0504 109.73C48.0372 110.462 51.155 110.653 54.2205 110.282C57.2859 109.91 60.2334 108.999 62.919 107.585L88.2285 94.2231L88.294 94.1632C88.3115 94.1472 88.3246 94.1233 88.3333 94.0913C88.3508 94.0673 88.3639 94.0434 88.3726 94.0194V82.7544L57.823 98.9209C57.5086 99.0887 57.1811 99.2085 56.8405 99.3044C56.4868 99.3883 56.1331 99.4242 55.7663 99.4242C55.4126 99.4242 55.0589 99.3883 54.7052 99.3044C54.3646 99.2085 54.024 99.0887 53.7096 98.9209L28.6751 85.6905C28.4524 85.5706 28.1249 85.3909 27.9415 85.283C27.7057 86.5174 27.5878 87.7637 27.5878 89.0101C27.5878 90.2564 27.7188 91.5027 27.9546 92.7371C28.1904 93.9595 28.5572 95.1699 29.0157 96.3443C29.4874 97.5187 30.0638 98.6452 30.745 99.7238V99.6998ZM24.1687 49.7263C22.6229 52.183 21.6273 54.8914 21.2211 57.6957C20.815 60.5 21.0246 63.3402 21.8238 66.0846C22.6229 68.8169 23.9984 71.3695 25.8848 73.6225C27.7712 75.8636 30.1162 77.745 32.7886 79.1592L58.085 92.5334C58.1112 92.5414 58.1418 92.5494 58.1767 92.5573H58.2684C58.3034 92.5573 58.3339 92.5494 58.3601 92.5334C58.3863 92.5254 58.4125 92.5134 58.4387 92.4974L69.0499 86.8889L38.5003 70.7583C38.199 70.5906 37.9108 70.3868 37.6488 70.1591C37.3949 69.9262 37.1748 69.6644 36.9937 69.3802C36.8234 69.0926 36.6793 68.793 36.5876 68.4694C36.4959 68.1578 36.4435 67.8342 36.4566 67.4987V40.2829C35.1728 40.7143 33.9283 41.2416 32.7493 41.8648C31.5703 42.4999 30.4568 43.219 29.4088 44.0219C28.3738 44.8248 27.4044 45.7117 26.5267 46.6704C25.649 47.6171 24.8761 48.6478 24.1949 49.7263H24.1687ZM111.062 68.2297C111.376 68.3975 111.665 68.5892 111.927 68.8289C112.176 69.0566 112.398 69.3203 112.582 69.6079C112.752 69.8955 112.896 70.2071 112.988 70.5187C113.066 70.8422 113.119 71.1658 113.106 71.5014V98.7171C117.311 97.303 120.979 94.8223 123.691 91.5627C126.415 88.303 128.053 84.4082 128.433 80.3336C128.813 76.259 127.922 72.1605 125.852 68.5293C123.782 64.8981 120.625 61.8782 116.748 59.8409L91.4511 46.4667C91.4249 46.4587 91.3944 46.4507 91.3594 46.4427H91.2677C91.2415 46.4507 91.211 46.4587 91.176 46.4667C91.1498 46.4746 91.1236 46.4866 91.0974 46.5026L80.5387 52.0872L111.088 68.2297H111.062ZM121.608 53.729H121.595V53.741L121.608 53.729ZM121.595 53.717C122.354 49.6904 121.844 45.5439 120.114 41.7689C118.398 37.9939 115.529 34.7462 111.861 32.3974C108.193 30.0605 103.87 28.7183 99.4029 28.5385C94.9227 28.3707 90.4948 29.3654 86.6172 31.4027L61.3208 44.7649C61.2946 44.7809 61.2727 44.8009 61.2553 44.8248L61.2029 44.8967C61.1941 44.9207 61.1854 44.9487 61.1767 44.9806C61.1679 45.0046 61.1636 45.0326 61.1636 45.0645V56.2337L91.7132 40.0911C92.0276 39.9234 92.3682 39.8035 92.7088 39.7076C93.0625 39.6238 93.4162 39.5878 93.7699 39.5878C94.1367 39.5878 94.4904 39.6238 94.8441 39.7076C95.1847 39.8035 95.5122 39.9234 95.8266 40.0911L120.861 53.3215C121.084 53.4414 121.411 53.6092 121.595 53.717ZM55.3995 41.3495C55.3995 41.0259 55.4519 40.7023 55.5436 40.3788C55.6353 40.0672 55.7663 39.7556 55.9497 39.468C56.1331 39.1923 56.3427 38.9287 56.6047 38.689C56.8536 38.4613 57.1418 38.2576 57.4562 38.1018L82.4906 24.8834C82.7264 24.7515 83.0539 24.5838 83.2373 24.4999C79.8051 21.8754 75.613 20.1976 71.1721 19.6823C66.7311 19.155 62.2247 19.8021 58.1767 21.5398C54.1157 23.2775 50.6834 26.0458 48.2861 29.4972C45.8888 32.9606 44.618 36.9633 44.618 41.0618V67.7863C44.6268 67.8183 44.6355 67.8462 44.6442 67.8702C44.653 67.8942 44.6661 67.9181 44.6835 67.9421C44.701 67.9661 44.7228 67.99 44.749 68.014C44.7665 68.03 44.7927 68.0459 44.8276 68.0619L55.3995 73.6465V41.3495ZM61.1374 76.6665L74.7484 83.8569L88.3595 76.6665V62.2976L74.7615 55.1072L61.1505 62.2976L61.1374 76.6665Z" fill="#6EB5A8"/>
</g>
<defs>
<filter id="filter0_d_62_897" x="0.779297" y="0" width="147.984" height="139" filterUnits="userSpaceOnUse" color-interpolation-filters="sRGB">
<feFlood flood-opacity="0" result="BackgroundImageFix"/>
<feColorMatrix in="SourceAlpha" type="matrix" values="0 0 0 0 0 0 0 0 0 0 0 0 0 0 0 0 0 0 127 0" result="hardAlpha"/>
<feOffset/>
<feGaussianBlur stdDeviation="6"/>
<feComposite in2="hardAlpha" operator="out"/>
<feColorMatrix type="matrix" values="0 0 0 0 0.701961 0 0 0 0 0.878431 0 0 0 0 0.780392 0 0 0 0.65 0"/>
<feBlend mode="normal" in2="BackgroundImageFix" result="effect1_dropShadow_62_897"/>
<feBlend mode="normal" in="SourceGraphic" in2="effect1_dropShadow_62_897" result="shape"/>
</filter>
</defs>
</svg>
