<svg width="122" height="139" viewBox="0 0 122 139" fill="none" xmlns="http://www.w3.org/2000/svg">
<g filter="url(#filter0_d_62_906)">
<path d="M109.089 99.6136L68.6794 15.6277C67.6565 13.5219 65.5363 12.1346 63.1571 12.0141C60.7724 11.8577 58.4967 13.0123 57.2528 15.0096L13.4237 84.4838C12.063 86.6254 12.0916 89.3442 13.4971 91.4579L34.9255 123.934C36.5905 126.438 39.74 127.571 42.6656 126.72L104.851 108.718C106.745 108.176 108.306 106.857 109.131 105.102C109.944 103.355 109.93 101.346 109.092 99.6107L109.089 99.6136ZM100.042 103.216L47.2744 118.486C45.6647 118.955 44.1197 117.589 44.4545 116L63.3069 27.6556C63.6594 26.0026 65.9917 25.741 66.729 27.2704L101.628 99.8005C101.941 100.455 101.944 101.21 101.639 101.867C101.333 102.524 100.748 103.017 100.039 103.216H100.042Z" fill="#6EB5A8"/>
</g>
<defs>
<filter id="filter0_d_62_906" x="0.422729" y="0" width="121.308" height="139" filterUnits="userSpaceOnUse" color-interpolation-filters="sRGB">
<feFlood flood-opacity="0" result="BackgroundImageFix"/>
<feColorMatrix in="SourceAlpha" type="matrix" values="0 0 0 0 0 0 0 0 0 0 0 0 0 0 0 0 0 0 127 0" result="hardAlpha"/>
<feOffset/>
<feGaussianBlur stdDeviation="6"/>
<feComposite in2="hardAlpha" operator="out"/>
<feColorMatrix type="matrix" values="0 0 0 0 0.701961 0 0 0 0 0.878431 0 0 0 0 0.780392 0 0 0 0.65 0"/>
<feBlend mode="normal" in2="BackgroundImageFix" result="effect1_dropShadow_62_906"/>
<feBlend mode="normal" in="SourceGraphic" in2="effect1_dropShadow_62_906" result="shape"/>
</filter>
</defs>
</svg>
