<svg width="139" height="139" viewBox="0 0 139 139" fill="none" xmlns="http://www.w3.org/2000/svg">
<g filter="url(#filter0_d_62_888)">
<path d="M69.5268 58.1757C71.5014 58.1759 73.4318 58.8283 75.0751 60.0511C76.7183 61.2738 78.0009 63.012 78.7613 65.047C79.5218 67.082 79.7261 69.3227 79.3486 71.4871C78.971 73.6515 78.0285 75.6428 76.6397 77.2103C75.2509 78.7778 73.4779 79.8514 71.5438 80.296C69.6097 80.7406 67.6011 80.5363 65.7708 79.7088C63.9405 78.8812 62.3704 77.4676 61.258 75.6456C60.1457 73.8237 59.5409 71.6751 59.5198 69.4701C59.5127 67.9948 59.766 66.5323 60.2651 65.1662C60.7642 63.8002 61.4993 62.5573 62.4285 61.5085C63.3578 60.4597 64.4629 59.6256 65.6808 59.0537C66.8987 58.4819 68.2056 58.1836 69.5268 58.1757ZM44.7501 117.277C48.1215 119.548 55.4528 116.082 64.0149 107.118C61.1532 103.487 58.4563 99.6971 55.9344 95.7639C51.6181 95.2241 47.3309 94.4262 43.0912 93.3736C40.362 106.162 41.3788 114.946 44.7501 117.277ZM48.5496 82.9756L46.9977 79.9279C46.3927 81.6064 45.8746 83.3223 45.4458 85.0671C46.8906 85.4257 48.496 85.7245 50.155 86.0233L48.5496 82.9756ZM83.5472 78.4339L87.8818 69.4701L83.5472 60.5063C81.9418 57.3391 80.2294 54.5304 78.6775 51.7218C75.7878 51.5425 72.7376 51.5425 69.5268 51.5425C66.316 51.5425 63.2657 51.5425 60.376 51.5425C58.8241 54.3512 57.1117 57.1598 55.5063 60.327L51.1717 69.4701L55.5063 78.4339C57.1117 81.6011 58.8241 84.4098 60.376 87.2185C63.2657 87.2185 66.316 87.2185 69.5268 87.2185C72.7376 87.2185 75.7878 87.2185 78.6775 87.2185C80.2294 84.4098 81.9418 81.6011 83.5472 78.4339ZM69.5268 38.2761C68.51 39.5908 67.4397 40.9652 66.3695 42.5787H72.684C71.6138 40.9652 70.5435 39.5908 69.5268 38.2761ZM69.5268 100.664C70.5435 99.3495 71.6138 97.975 72.684 96.3615H66.3695C67.4397 97.975 68.51 99.3495 69.5268 100.664ZM94.2499 21.6632C90.9321 19.3923 83.5472 22.8583 75.0386 31.8221C77.9003 35.4537 80.5972 39.2432 83.1191 43.1763C87.4315 43.6372 91.7187 44.3553 95.9623 45.3276C98.6915 32.5393 97.6747 23.7547 94.2499 21.4241M90.504 55.7256L92.0558 58.7733C92.6608 57.0948 93.1789 55.3789 93.6077 53.6341C92.1629 53.2755 90.5575 52.9767 88.8986 52.6779L90.504 55.7256ZM98.2634 13.8945C106.13 18.9143 106.986 32.1209 103.615 47.5387C117.207 52.0206 127 59.4904 127 69.5299C127 79.5693 117.207 87.0392 103.615 91.5211C106.933 106.939 106.076 120.145 98.2634 125.165C90.4504 130.185 79.8013 124.448 69.5268 113.512C59.2522 124.448 48.6031 130.185 40.7366 125.165C32.8702 120.145 32.0675 107.238 35.3853 91.5211C21.7929 87.0392 12 79.5693 12 69.5299C12 59.4904 21.7929 51.9608 35.3853 47.4789C32.0675 32.0612 32.9237 18.8545 40.7366 13.8348C48.5496 8.81506 59.2522 14.5519 69.5268 25.4877C79.8013 14.5519 90.4504 8.81506 98.2634 13.8348M96.7115 69.4701C98.57 73.8692 100.214 78.3777 101.635 82.9756C112.872 79.2108 119.187 73.8325 119.187 69.4701C119.187 65.1077 112.712 59.7295 101.635 55.9647C100.214 60.5626 98.57 65.071 96.7115 69.4701ZM42.342 69.4701C40.4835 65.071 38.84 60.5626 37.4188 55.9647C26.181 59.7295 19.8664 65.1077 19.8664 69.4701C19.8664 73.8325 26.3416 79.2108 37.4188 82.9756C38.84 78.3777 40.4835 73.8692 42.342 69.4701ZM90.504 82.9756L88.8986 86.0233C90.5575 86.0233 92.1629 85.4257 93.6077 85.0671C93.1789 83.3223 92.6608 81.6064 92.0558 79.9279L90.504 82.9756ZM74.8781 107.118C83.3867 116.082 90.9321 119.548 94.0893 117.277C97.2466 115.006 98.5309 106.401 95.8018 93.3736C91.5581 94.3459 87.2709 95.064 82.9586 95.5249C80.4426 99.5396 77.7456 103.409 74.8781 107.118ZM48.5496 55.9647L50.155 52.917C48.496 52.917 46.8906 53.5146 45.4458 53.8731C45.8746 55.6179 46.3927 57.3339 46.9977 59.0124L48.5496 55.9647ZM64.1754 31.8221C55.5063 22.8583 48.1215 19.3923 44.7501 21.6632C41.3788 23.934 40.362 32.5393 43.0912 45.5667C47.3349 44.5943 51.622 43.8762 55.9344 43.4153C58.5025 39.3965 61.2532 35.5271 64.1754 31.8221Z" fill="#6EB5A8"/>
</g>
<defs>
<filter id="filter0_d_62_888" x="0" y="0" width="139" height="139" filterUnits="userSpaceOnUse" color-interpolation-filters="sRGB">
<feFlood flood-opacity="0" result="BackgroundImageFix"/>
<feColorMatrix in="SourceAlpha" type="matrix" values="0 0 0 0 0 0 0 0 0 0 0 0 0 0 0 0 0 0 127 0" result="hardAlpha"/>
<feOffset/>
<feGaussianBlur stdDeviation="6"/>
<feComposite in2="hardAlpha" operator="out"/>
<feColorMatrix type="matrix" values="0 0 0 0 0.701961 0 0 0 0 0.878431 0 0 0 0 0.780392 0 0 0 0.65 0"/>
<feBlend mode="normal" in2="BackgroundImageFix" result="effect1_dropShadow_62_888"/>
<feBlend mode="normal" in="SourceGraphic" in2="effect1_dropShadow_62_888" result="shape"/>
</filter>
</defs>
</svg>
