<svg width="140" height="139" viewBox="0 0 140 139" fill="none" xmlns="http://www.w3.org/2000/svg">
<g filter="url(#filter0_d_62_900)">
<path fill-rule="evenodd" clip-rule="evenodd" d="M120.106 41.9113C120.353 43.7455 120.492 45.7053 120.492 47.8212C120.492 57.9293 119.554 58.4989 98.5552 119.2C115.65 109.229 127.15 90.7091 127.15 69.4981C127.15 59.4991 124.597 50.0991 120.106 41.9113ZM70.662 74.5291L53.4063 124.655C65.05 128.082 77.3895 127.733 88.7458 123.742C88.5905 123.495 88.4525 123.229 88.3375 122.948L70.662 74.5291ZM108.468 66.5951C108.468 59.4883 105.915 54.5648 103.724 50.7354C100.815 45.9976 98.078 41.9915 98.078 37.2537C98.078 31.9696 102.091 27.0483 107.738 27.0483C107.991 27.0483 108.233 27.0817 108.48 27.0932C98.2506 17.7211 84.623 12 69.65 12C49.5653 12 31.8898 22.3027 21.6088 37.9134C25.2715 38.0284 30.1877 38.0758 40.6355 37.2593C43.7347 37.0753 44.0971 41.6277 41.0036 41.99C41.0036 41.99 37.887 42.359 34.4198 42.543L55.3613 104.825L67.9423 67.0836L58.9838 42.5374C55.8903 42.3592 52.9578 41.99 52.9578 41.99C49.8585 41.806 50.2208 37.0697 53.32 37.2537C65.2053 38.1679 71.2888 38.2369 83.7893 37.2537C86.8885 37.0697 87.2565 41.622 84.1572 41.99C84.1572 41.99 81.0351 42.3592 77.5736 42.5374L98.354 104.348C106.559 76.9328 108.468 72.3449 108.468 66.5951ZM12.15 69.4981C12.15 92.2558 25.375 111.926 44.557 121.246L17.1295 46.0974C13.9383 53.2501 12.15 61.1608 12.15 69.4981Z" fill="#6EB5A8"/>
</g>
<defs>
<filter id="filter0_d_62_900" x="0.150024" y="0" width="139" height="139" filterUnits="userSpaceOnUse" color-interpolation-filters="sRGB">
<feFlood flood-opacity="0" result="BackgroundImageFix"/>
<feColorMatrix in="SourceAlpha" type="matrix" values="0 0 0 0 0 0 0 0 0 0 0 0 0 0 0 0 0 0 127 0" result="hardAlpha"/>
<feOffset/>
<feGaussianBlur stdDeviation="6"/>
<feComposite in2="hardAlpha" operator="out"/>
<feColorMatrix type="matrix" values="0 0 0 0 0.701961 0 0 0 0 0.878431 0 0 0 0 0.780392 0 0 0 0.65 0"/>
<feBlend mode="normal" in2="BackgroundImageFix" result="effect1_dropShadow_62_900"/>
<feBlend mode="normal" in="SourceGraphic" in2="effect1_dropShadow_62_900" result="shape"/>
</filter>
</defs>
</svg>
