<svg width="30" height="66" viewBox="0 0 30 66" fill="none" xmlns="http://www.w3.org/2000/svg">
<rect x="6" y="54" width="6" height="6" fill="#00001C"/>
<rect x="12" y="60" width="6" height="6" fill="#00001C"/>
<rect x="18" y="60" width="6" height="6" fill="#00001C"/>
<rect x="24" y="54" width="6" height="6" fill="#00001C"/>
<rect x="12" y="43" width="6" height="6" fill="#00001C"/>
<rect x="24" y="43" width="6" height="6" fill="#00001C"/>
<rect x="6" y="31" width="6" height="6" fill="#00001C"/>
<rect y="19" width="6" height="6" fill="#00001C"/>
<rect x="12" y="25" width="6" height="6" fill="#00001C"/>
<rect x="24" y="30" width="6" height="6" fill="#00001C"/>
<rect x="24" y="24" width="6" height="6" fill="#00001C"/>
<rect x="18" y="12" width="6" height="6" fill="#00001C"/>
<rect x="12" y="6" width="6" height="6" fill="#00001C"/>
<rect x="18" y="6" width="6" height="6" fill="#00001C"/>
<rect x="24" y="12" width="6" height="6" fill="#00001C"/>
<rect x="24" width="6" height="6" fill="#00001C"/>
</svg>
