<svg width="745" height="748" viewBox="0 0 745 748" fill="none" xmlns="http://www.w3.org/2000/svg">
<path d="M652.944 15.4711C629.344 36.1378 579.744 85.0711 557.877 109.204C501.344 171.738 453.61 235.871 411.344 306.271C364.544 384.138 320.144 480.538 294.144 560.804C289.877 574.004 287.877 578.271 286.544 577.738C285.477 577.471 233.61 543.471 171.344 502.271C91.7436 449.738 57.477 427.871 56.277 428.671C55.2103 429.338 42.1436 446.404 27.077 466.538C4.54364 496.538 -0.256361 503.871 0.0103062 506.938C0.410306 510.271 17.877 522.138 180.41 629.204L360.41 747.871L361.344 742.138C361.744 739.071 363.21 728.138 364.41 717.871C376.41 616.938 419.477 499.204 486.144 385.204C554.277 268.804 644.944 158.404 728.81 90.1378C737.744 82.8045 744.944 76.4045 744.81 75.8711C744.544 75.3378 729.744 58.1378 711.744 37.4711C682.277 3.7378 678.677 0.00447166 674.944 0.00447166C671.477 -0.128862 667.744 2.5378 652.944 15.4711Z" fill="#00001C"/>
</svg>
