<svg width="725" height="732" viewBox="0 0 725 732" fill="none" xmlns="http://www.w3.org/2000/svg">
<path d="M34.6667 40.9335C15.6 63.4668 0 82.4001 0 82.9335C0 83.3335 10.5333 92.6668 23.3333 103.467C98.5333 166.933 169.867 231.467 255.6 313.733L283.333 340.4L274.267 350.133C269.333 355.467 252.133 373.867 235.867 390.933C156 475.467 86.9333 555.2 18.5333 641.867C3.73333 660.533 -0.266667 666.4 1.06667 667.6C2 668.4 19.3333 683.2 39.7333 700.533C71.4667 727.467 77.6 732 81.0667 731.867C84.8 731.867 86.8 730 98.6667 715.6C162.4 638 274.133 513.2 344.8 440.933L364 421.333L394.133 452.933C480.667 544 552.533 624.4 626.533 713.067C641.6 731.067 642.667 732.133 646.8 731.733C653.2 731.2 724.667 670.4 724.667 665.467C724.667 662 723.067 659.733 693.467 622.667C629.067 541.867 559.6 462.667 477.733 376.4C459.6 357.2 444.667 341.2 444.667 340.933C444.667 339.067 518.667 268.267 562 228.533C610.267 184.4 694.4 110.533 719.067 90.8001C723.2 87.4668 724.667 85.2001 724.667 82.5335C724.667 79.7335 717.067 70.0001 691.2 39.4668C672.933 17.7335 657.467 0.00012459 657.067 0.00012459C656.133 0.00012459 618.133 31.0668 584.667 59.4668C514.267 119.067 447.467 179.467 374.4 249.867L363.467 260.4L342.933 240.533C293.333 192.267 225.333 130.4 166.667 80.0001C128.8 47.3335 71.4667 0.00012459 70 0.00012459C69.6 0.00012459 53.7333 18.4001 34.6667 40.9335Z" fill="#00001C"/>
</svg>
