<svg width="122" height="120" viewBox="0 0 122 120" fill="none" xmlns="http://www.w3.org/2000/svg">
<path fill-rule="evenodd" clip-rule="evenodd" d="M29.2 122.88H40.23V103.84H29.2V122.88ZM23.17 19.51H97.93C100.49 19.51 102.59 21.6 102.59 24.17V99.18C102.59 101.74 100.49 103.84 97.93 103.84H23.17C20.61 103.84 18.51 101.74 18.51 99.18V24.16C18.51 21.6 20.6 19.51 23.17 19.51ZM123.38 65.62V74.78H102.59V65.62H123.38ZM123.38 48.1V57.26H102.59V48.1H123.38ZM123.38 83.15V94.18H102.59V83.15H123.38ZM123.38 28.7V39.73H102.59V28.7H123.38ZM0.5 65.62V74.78H18.51V65.62H0.5ZM0.5 48.1V57.26H18.51V48.1H0.5ZM0.5 83.15V94.18H18.51V83.15H0.5ZM0.5 28.7V39.73H18.51V28.7H0.5ZM66.12 0H75.28V19.51H66.12V0ZM48.6 0H57.76V19.51H48.6V0ZM83.65 0H94.68V19.51H83.65V0ZM29.2 0H40.23V19.51H29.2V0ZM66.12 122.88H75.28V103.84H66.12V122.88ZM48.6 122.88H57.76V103.84H48.6V122.88ZM83.65 122.88H94.68V103.84H83.65V122.88Z" fill="#4B7B72"/>
</svg>
